<svg width="20" height="20" viewBox="0 0 20 20" fill="none" xmlns="http://www.w3.org/2000/svg">
    <path d="M10 18.3327C5.39752 18.3327 1.66669 14.6018 1.66669 9.99935C1.66669 5.39685 5.39752 1.66602 10 1.66602C14.6025 1.66602 18.3334 5.39685 18.3334 9.99935C18.3334 14.6018 14.6025 18.3327 10 18.3327ZM10 16.666C11.7681 16.666 13.4638 15.9636 14.7141 14.7134C15.9643 13.4632 16.6667 11.7675 16.6667 9.99935C16.6667 8.23124 15.9643 6.53555 14.7141 5.2853C13.4638 4.03506 11.7681 3.33268 10 3.33268C8.23191 3.33268 6.53622 4.03506 5.28598 5.2853C4.03573 6.53555 3.33335 8.23124 3.33335 9.99935C3.33335 11.7675 4.03573 13.4632 5.28598 14.7134C6.53622 15.9636 8.23191 16.666 10 16.666ZM9.16669 5.83268H10.8334V7.49935H9.16669V5.83268ZM9.16669 9.16602H10.8334V14.166H9.16669V9.16602Z"
          fill="black"/>
</svg>
