<svg width="231" height="50" viewBox="0 0 231 50" fill="none" xmlns="http://www.w3.org/2000/svg">
<g clip-path="url(#clip0_108_3)">
<path d="M162.349 36.6036H168.534V14.957C168.534 13.4108 168.38 11.71 168.07 10.0092C167.761 8.30838 167.143 6.76219 166.215 5.37063C164.05 2.5875 161.112 1.19593 157.247 1.19593C155.082 1.19593 153.072 1.8144 151.217 3.20597C149.361 4.59753 147.661 6.14372 145.96 7.6899C145.187 5.52525 143.795 3.82444 141.785 2.74211C139.775 1.65978 137.765 1.04131 135.6 1.04131C133.436 1.04131 131.58 1.65978 130.034 2.74211C128.488 3.82444 126.942 5.06139 125.396 6.45296V1.65978H119.52V36.7582H125.396V12.9469C126.942 11.4007 128.333 10.0092 129.57 8.61762C130.807 7.38067 132.353 6.76219 134.363 6.76219C136.528 6.76219 138.229 7.53529 139.311 9.08147C140.394 10.6277 141.012 12.4831 141.012 14.6477V36.6036H147.197V12.9469C148.588 11.4007 149.825 10.0092 151.062 8.61762C152.299 7.38067 153.845 6.76219 155.855 6.76219C158.639 6.76219 160.339 7.6899 161.267 9.69994C162.04 11.71 162.504 13.72 162.504 15.8847L162.349 36.6036ZM40.6647 14.3385C41.1285 12.7923 41.747 11.2461 42.8293 9.69994C43.9116 8.15376 45.3032 7.53529 47.1586 7.53529C49.3233 7.53529 50.8695 8.15376 51.9518 9.39071C52.8795 10.6277 53.498 12.3285 53.8072 14.3385H40.6647ZM54.7349 28.5634C52.4157 29.1819 50.251 29.3365 48.0863 29.1819C45.9217 29.0273 44.0663 28.2542 42.5201 27.1718C40.9739 25.9349 40.51 24.0795 40.8193 21.2963H59.2189C60.4558 21.2963 61.0743 20.9871 61.3835 20.214C61.6928 19.5955 61.8474 18.3586 61.8474 16.8124C61.8474 13.2562 60.9197 10.1638 59.2189 7.6899C57.3635 5.21601 55.1988 3.36059 52.5703 2.27826C49.9418 1.19593 47.004 0.886691 44.0663 1.50517C41.1285 2.12364 38.3454 3.66982 35.7169 6.29834C32.9337 10.0092 31.5422 14.3385 31.5422 19.2863C31.5422 23.461 32.4699 26.8626 34.1707 29.3365C36.0261 31.965 38.1908 33.8204 40.9739 34.9028C43.757 36.1397 46.8494 36.6036 50.251 36.4489C53.6526 36.2943 56.8996 35.3666 60.3012 33.8204V26.0895C58.9096 27.1718 57.0542 28.0995 54.7349 28.5634ZM20.4096 36.6036H29.3775L29.0683 15.2662C29.0683 14.3385 29.0683 13.4108 29.0683 12.4831C29.0683 11.5554 28.9137 10.6277 28.759 9.69994C27.2129 4.2883 23.6566 1.65978 18.0904 1.65978C14.5341 1.65978 11.4418 3.05135 8.65863 5.83448V1.65978H0V36.7582H8.65863V14.0293C9.74096 12.6377 10.9779 11.5554 12.2149 10.473C13.1426 9.69994 14.2249 9.39071 15.4618 9.39071C17.4719 9.39071 18.8635 10.0092 19.6365 11.4007C20.4096 12.7923 20.7189 14.3385 20.5643 16.1939V36.6036H20.4096ZM111.635 19.1317C113.49 13.2562 115.191 7.38067 117.046 1.65978H107.614C106.687 5.83448 105.604 10.0092 104.367 14.3385C103.131 18.6678 102.048 22.8425 101.12 27.3265C99.7289 22.9971 98.492 18.6678 97.4096 14.3385C96.3273 10.0092 95.245 5.83448 94.008 1.65978H85.3494L78.8554 27.1718C77.9277 22.9971 76.6908 18.6678 75.4538 14.1839C74.2169 9.69994 72.9799 5.52525 71.743 1.50517H62.002C63.8574 7.22605 65.5582 13.1016 67.4137 18.8224C69.2691 24.6979 70.9699 30.5734 72.8253 36.4489H83.8032C84.7309 32.7381 85.8133 29.0273 86.741 25.471C87.6687 21.9148 88.751 18.204 89.6787 14.4931C90.6064 18.204 91.6888 21.9148 92.6165 25.471C93.5442 29.0273 94.6265 32.7381 95.5542 36.4489H106.532C108.078 30.8827 109.779 25.0072 111.635 19.1317ZM231 1.65978H214.301C210.9 1.65978 207.962 2.5875 205.333 4.59754C202.705 6.60758 201.468 9.39071 201.468 13.2562C201.468 16.0393 202.396 18.3586 204.096 20.3686C203.169 21.2963 202.241 22.3787 201.777 23.6156C201.159 24.8526 200.849 26.0895 200.849 27.4811C200.849 28.718 201.159 29.6457 201.777 30.4188C202.241 31.1919 203.014 31.965 204.406 32.4289C203.478 33.3566 202.55 34.2843 201.777 35.212C201.004 36.1397 200.386 37.0674 199.922 38.3044C199.458 39.8505 199.458 41.3967 199.922 43.0975C200.386 44.6437 201.313 46.0353 202.859 46.963C204.406 47.8907 206.261 48.6638 208.271 48.8184C210.281 49.1277 212.291 49.2823 214.456 49.2823C217.084 49.2823 219.404 48.973 221.568 48.3546C223.733 47.7361 225.434 46.963 226.671 46.0353C227.598 45.2622 228.681 44.0252 229.608 42.4791C230.227 41.2421 230.536 39.8505 230.536 38.3044C230.536 36.9128 230.227 35.6758 229.608 34.4389C228.681 32.5835 227.135 31.5012 225.125 30.7281C223.114 30.1096 221.104 29.6457 219.249 29.3365L210.59 29.0273C209.663 29.0273 208.58 28.718 207.653 28.2542C206.725 27.7903 206.106 27.0172 206.106 26.0895C206.106 24.5433 206.57 23.461 207.653 22.8425C208.116 22.9971 208.426 23.3064 208.89 23.461C209.353 23.6156 209.817 23.9248 210.745 24.0795C212.291 24.5433 213.528 24.6979 214.301 24.6979C216.311 24.6979 218.012 24.3887 219.713 23.7702C224.815 21.6056 227.444 17.8947 227.444 12.7923C227.444 10.1638 226.671 8.30838 225.125 6.91681H231V1.65978ZM219.558 18.3586C218.321 19.4409 216.466 20.0594 214.301 20.0594C209.817 20.0594 207.498 17.7401 207.498 13.2562C207.498 11.0915 208.116 9.39071 209.353 7.99914C210.59 6.76219 212.291 6.14372 214.456 6.14372C219.249 6.14372 221.568 8.463 221.568 13.2562C221.414 15.5754 220.795 17.2763 219.558 18.3586ZM222.341 43.0975C220.177 44.3345 217.703 44.953 214.92 44.953C211.827 44.953 209.508 44.4891 208.116 43.716C206.57 42.9429 205.797 41.706 205.797 40.1598C205.797 38.3044 206.416 36.9128 207.653 35.6758C208.426 34.9028 209.199 34.2843 209.663 33.8204L218.321 34.1297C219.867 34.2843 221.259 34.7481 222.496 35.3666C223.733 35.9851 224.351 37.0674 224.506 38.6136C224.351 40.6236 223.733 42.1698 222.341 43.0975ZM172.709 10.1638C174.1 9.23609 175.956 8.30838 178.275 7.53529C180.594 6.76219 182.759 6.29834 184.769 6.29834C186.779 6.29834 188.635 6.91681 190.181 7.99914C191.727 9.08147 192.345 11.0915 192.345 13.72V16.0393H187.552C185.388 16.0393 183.223 16.1939 181.213 16.6578C179.203 17.1216 177.347 17.7401 175.647 18.6678C174.1 19.5955 173.018 20.6779 172.4 21.9148C170.853 24.5433 170.544 27.3265 171.781 30.2642C173.018 33.202 174.874 35.0574 177.657 35.8305C179.203 36.2943 180.904 36.4489 182.914 36.4489C184.769 36.4489 186.47 35.9851 188.171 35.212C188.944 34.7481 189.717 34.4389 190.181 33.975C190.799 33.5112 191.418 33.0473 192.191 32.4289V36.2943H198.066V13.1016C198.066 9.54533 197.139 6.76219 195.438 4.90677C193.582 3.05135 191.418 1.8144 188.944 1.19593C186.315 0.577455 183.532 0.577455 180.594 1.35055C177.657 1.96902 175.028 3.20597 172.554 4.75215L172.709 10.1638ZM192.345 27.4811C190.954 28.8726 189.717 29.955 188.48 30.7281C187.243 31.5012 185.697 31.965 183.687 31.965C181.367 31.965 179.512 31.1919 178.275 29.8003C177.038 28.2542 177.038 26.3987 177.966 24.0795C178.894 22.5333 180.594 21.4509 182.759 21.1417C183.532 20.9871 184.924 20.8325 186.934 20.8325H192.345V27.4811Z" fill="black"/>
<path d="M0.309235 48.509V42.9427H2.16466C2.78313 42.9427 3.24699 42.9427 3.55622 43.0973C3.86546 43.2519 4.1747 43.4065 4.32932 43.7158C4.48393 44.025 4.63855 44.3343 4.63855 44.6435C4.63855 44.9527 4.63855 45.262 4.48393 45.5712C4.32932 45.8804 4.1747 46.0351 3.86546 46.0351C3.71084 46.1897 3.55622 46.1897 3.24699 46.3443C2.93775 46.3443 2.62851 46.4989 2.16466 46.4989H1.39156V48.509H0.309235ZM1.39156 43.8704V45.4166H2.01004C2.47389 45.4166 2.78313 45.4166 2.93775 45.262C3.09237 45.262 3.24699 45.1074 3.24699 44.9527C3.4016 44.7981 3.4016 44.6435 3.4016 44.4889C3.4016 44.3343 3.4016 44.1796 3.24699 44.025C3.09237 43.8704 2.93775 43.8704 2.78313 43.7158C2.62851 43.7158 2.31927 43.7158 2.01004 43.7158H1.39156V43.8704Z" fill="black"/>
<path d="M13.1426 42.9429H14.2249V46.0353C14.2249 46.4991 14.2249 46.8084 14.2249 46.963C14.2249 47.1176 14.3795 47.4269 14.5341 47.5815C14.6887 47.7361 14.998 47.7361 15.3072 47.7361C15.6165 47.7361 15.9257 47.7361 16.0803 47.5815C16.2349 47.4269 16.3895 47.2722 16.3895 47.1176C16.3895 46.963 16.3895 46.6538 16.3895 46.1899V43.0975H17.4719V46.0353C17.4719 46.6538 17.4719 47.1176 17.3173 47.4269C17.3173 47.7361 17.1626 47.8907 17.008 48.0453C16.8534 48.1999 16.6988 48.3546 16.3895 48.5092C16.0803 48.6638 15.7711 48.6638 15.3072 48.6638C14.8434 48.6638 14.3795 48.6638 14.0703 48.5092C13.761 48.3546 13.6064 48.1999 13.4518 48.0453C13.2972 47.8907 13.2972 47.5815 13.1426 47.4269C13.1426 47.1176 12.9879 46.6538 12.9879 46.0353V42.9429H13.1426Z" fill="black"/>
<path d="M26.2851 42.9429H28.4498C28.9137 42.9429 29.2229 42.9429 29.3775 42.9429C29.5321 42.9429 29.8414 43.0975 29.996 43.0975C30.1506 43.2522 30.3052 43.4068 30.4598 43.5614C30.6145 43.716 30.6145 44.0252 30.6145 44.1799C30.6145 44.4891 30.6145 44.6437 30.4598 44.953C30.3052 45.1076 30.1506 45.2622 29.8414 45.4168C30.1506 45.5714 30.4598 45.726 30.6145 45.8807C30.7691 46.0353 30.9237 46.3445 30.9237 46.6538C30.9237 46.963 30.9237 47.1176 30.7691 47.4269C30.6145 47.7361 30.4598 47.8907 30.3052 48.0453C30.1506 48.1999 29.8414 48.1999 29.5321 48.3546C29.3775 48.3546 28.9137 48.3546 28.1406 48.3546H26.2851V42.9429ZM27.3675 43.8706V45.1076H28.1406C28.6044 45.1076 28.9137 45.1076 28.9137 45.1076C29.0683 45.1076 29.2229 44.953 29.3775 44.953C29.5321 44.7983 29.5321 44.6437 29.5321 44.4891C29.5321 44.3345 29.5321 44.1799 29.3775 44.0252C29.2229 43.8706 29.0683 43.8706 28.9137 43.8706C28.759 43.8706 28.4498 43.8706 27.9859 43.8706H27.3675ZM27.3675 46.1899V47.7361H28.4498C28.9137 47.7361 29.0683 47.7361 29.2229 47.7361C29.3775 47.7361 29.5321 47.5815 29.6867 47.5815C29.8414 47.4269 29.8414 47.2722 29.8414 47.1176C29.8414 46.963 29.8414 46.8084 29.6867 46.6538C29.5321 46.4991 29.5321 46.4991 29.3775 46.3445C29.2229 46.3445 28.9137 46.1899 28.4498 46.1899H27.3675Z" fill="black"/>
<path d="M39.5823 48.5092V43.0975H40.6647V47.5815H43.4478V48.5092H39.5823Z" fill="black"/>
<path d="M51.7972 48.5092V42.9429H52.8795V48.5092H51.7972Z" fill="black"/>
<path d="M61.2289 46.8084L62.3112 46.6538C62.3112 46.963 62.4659 47.2722 62.7751 47.4269C62.9297 47.5815 63.2389 47.7361 63.5482 47.7361C63.8574 47.7361 64.1667 47.7361 64.3213 47.5815C64.4759 47.4269 64.6305 47.2722 64.6305 47.1176C64.6305 46.963 64.6305 46.8084 64.4759 46.8084C64.4759 46.6538 64.3213 46.6538 64.012 46.4991C63.8574 46.4991 63.5482 46.3445 63.0843 46.1899C62.4659 46.0353 62.002 45.8807 61.8474 45.5714C61.5381 45.2622 61.3835 44.953 61.3835 44.4891C61.3835 44.1799 61.5382 43.8706 61.6928 43.716C61.8474 43.4068 62.1566 43.2522 62.3112 43.0975C62.6205 42.9429 62.9297 42.9429 63.3936 42.9429C64.012 42.9429 64.6305 43.0975 64.9398 43.4068C65.249 43.716 65.4036 44.1799 65.5582 44.6437H64.4759C64.4759 44.3345 64.3213 44.1799 64.1667 44.0252C64.012 43.8706 63.7028 43.8706 63.3936 43.8706C63.0843 43.8706 62.7751 43.8706 62.6205 44.0252C62.4659 44.1799 62.4659 44.1799 62.4659 44.3345C62.4659 44.4891 62.4659 44.6437 62.6205 44.6437C62.7751 44.7983 63.0843 44.953 63.7028 44.953C64.3213 45.1076 64.6305 45.2622 64.9398 45.4168C65.249 45.5714 65.4036 45.7261 65.5582 46.0353C65.7128 46.3445 65.7128 46.4991 65.7128 46.963C65.7128 47.2722 65.5582 47.5815 65.4036 47.8907C65.249 48.1999 64.9398 48.3546 64.6305 48.5092C64.3213 48.6638 63.8574 48.6638 63.3936 48.6638C62.6205 48.6638 62.1566 48.5092 61.8474 48.1999C61.5381 47.8907 61.3835 47.4269 61.2289 46.8084Z" fill="black"/>
<path d="M74.3715 48.5092V42.9429H75.4538V45.1076H77.6185V42.9429H78.7008V48.5092H77.6185V46.0353H75.4538V48.5092H74.3715Z" fill="black"/>
<path d="M87.5141 48.5092V42.9429H88.5964V48.5092H87.5141Z" fill="black"/>
<path d="M97.255 48.5092V42.9429H98.3373L100.657 46.6538V42.9429H101.739V48.5092H100.502L98.3373 44.953V48.5092H97.255Z" fill="black"/>
<path d="M113.026 46.4991V45.5714H115.5V47.7361C115.191 47.8907 114.882 48.1999 114.418 48.3546C113.954 48.5092 113.49 48.6638 113.026 48.6638C112.408 48.6638 111.944 48.5092 111.48 48.3546C111.016 48.0453 110.707 47.7361 110.552 47.2722C110.398 46.8084 110.243 46.3445 110.243 45.7261C110.243 45.1076 110.398 44.6437 110.552 44.1799C110.861 43.716 111.171 43.4068 111.635 43.0975C111.944 42.9429 112.408 42.7883 113.026 42.7883C113.645 42.7883 114.263 42.9429 114.572 43.2522C114.882 43.5614 115.191 43.8706 115.345 44.4891L114.263 44.6437C114.108 44.3345 114.108 44.1799 113.799 44.0253C113.645 43.8706 113.335 43.716 113.026 43.716C112.562 43.716 112.098 43.8706 111.789 44.1799C111.48 44.4891 111.325 44.953 111.325 45.5714C111.325 46.1899 111.48 46.6538 111.789 47.1176C112.098 47.4269 112.408 47.5815 112.871 47.5815C113.181 47.5815 113.335 47.5815 113.645 47.4269C113.954 47.2722 114.108 47.2722 114.263 47.1176V46.3445H113.026V46.4991Z" fill="black"/>
<path d="M137.92 48.509V42.9427H139.002V45.1074H141.167V42.9427H142.249V48.509H141.167V46.0351H139.002V48.509H137.92Z" fill="black"/>
<path d="M151.371 45.7261C151.371 45.1076 151.526 44.6437 151.681 44.3345C151.835 44.0253 151.99 43.8706 152.145 43.5614C152.299 43.4068 152.608 43.0975 152.918 43.0975C153.227 42.9429 153.691 42.9429 154.155 42.9429C154.928 42.9429 155.546 43.2522 156.165 43.716C156.783 44.1799 156.938 44.953 156.938 45.8807C156.938 46.8084 156.629 47.4269 156.165 48.0453C155.701 48.6638 155.082 48.8184 154.155 48.8184C153.382 48.8184 152.608 48.5092 152.145 48.0453C151.526 47.2722 151.371 46.6538 151.371 45.7261ZM152.454 45.7261C152.454 46.3445 152.608 46.8084 152.918 47.1176C153.227 47.4269 153.536 47.5815 154 47.5815C154.464 47.5815 154.773 47.4269 155.082 47.1176C155.392 46.8084 155.546 46.3445 155.546 45.7261C155.546 45.1076 155.392 44.6437 155.082 44.3345C154.773 44.0253 154.464 43.8706 154 43.8706C153.536 43.8706 153.227 44.0253 152.918 44.3345C152.608 44.6437 152.454 45.1076 152.454 45.7261Z" fill="black"/>
<path d="M165.596 42.9429H166.679V46.0353C166.679 46.4991 166.679 46.8084 166.679 46.963C166.679 47.1176 166.833 47.4269 166.988 47.5815C167.143 47.7361 167.452 47.7361 167.761 47.7361C168.07 47.7361 168.38 47.7361 168.534 47.5815C168.689 47.4269 168.843 47.2722 168.843 47.1176C168.843 46.963 168.843 46.6538 168.843 46.1899V43.0975H169.926V46.0353C169.926 46.6538 169.926 47.1176 169.771 47.4269C169.771 47.7361 169.616 47.8907 169.462 48.0453C169.307 48.1999 169.153 48.3546 168.843 48.5092C168.534 48.6638 168.225 48.6638 167.761 48.6638C167.297 48.6638 166.833 48.6638 166.524 48.5092C166.215 48.3546 166.06 48.1999 165.906 48.0453C165.751 47.8907 165.596 47.5815 165.596 47.4269C165.596 47.1176 165.442 46.6538 165.442 46.0353V42.9429H165.596Z" fill="black"/>
<path d="M178.894 46.6538L179.976 46.4991C179.976 46.8084 180.131 47.1176 180.44 47.2722C180.594 47.4269 180.904 47.5815 181.213 47.5815C181.522 47.5815 181.831 47.5815 181.986 47.4269C182.141 47.2722 182.295 47.1176 182.295 46.963C182.295 46.8084 182.295 46.6538 182.141 46.6538C181.986 46.6538 181.986 46.4991 181.677 46.3445C181.522 46.3445 181.213 46.1899 180.749 46.0353C180.131 45.8807 179.667 45.7261 179.512 45.4168C179.203 45.1076 179.048 44.7983 179.048 44.3345C179.048 44.0253 179.203 43.716 179.357 43.5614C179.512 43.2522 179.821 43.0975 179.976 42.9429C180.131 42.7883 180.594 42.7883 181.058 42.7883C181.677 42.7883 182.295 42.9429 182.604 43.2522C182.914 43.5614 183.068 44.0253 183.223 44.4891H182.141C182.141 44.1799 181.986 44.0253 181.831 43.8706C181.677 43.716 181.367 43.716 181.058 43.716C180.749 43.716 180.44 43.716 180.285 43.8706C180.131 44.0253 180.131 44.0253 180.131 44.1799C180.131 44.3345 180.131 44.4891 180.285 44.4891C180.44 44.6437 180.749 44.7983 181.367 44.7983C181.986 44.953 182.295 45.1076 182.604 45.2622C182.914 45.4168 183.068 45.5714 183.223 45.8807C183.378 46.1899 183.378 46.3445 183.378 46.8084C183.378 47.1176 183.223 47.4269 183.068 47.7361C182.914 48.0453 182.604 48.2 182.295 48.3546C181.986 48.5092 181.522 48.5092 181.058 48.5092C180.285 48.5092 179.821 48.3546 179.512 48.0453C179.203 47.7361 179.048 47.2722 178.894 46.6538Z" fill="black"/>
<path d="M192.5 48.5092V42.9429H196.675V43.8706H193.737V45.1076H196.52V46.0353H193.737V47.5815H196.829V48.5092H192.5Z" fill="black"/>
</g>
<defs>
<clipPath id="clip0_108_3">
<rect width="231" height="50" fill="white"/>
</clipPath>
</defs>
</svg>
