<svg width="22" height="22" viewBox="0 0 22 22" fill="none" xmlns="http://www.w3.org/2000/svg">
    <path d="M8.21792 16.5007C8.10895 17.2654 7.7277 17.9652 7.14421 18.4714C6.56072 18.9777 5.81416 19.2564 5.04167 19.2564C4.26918 19.2564 3.52262 18.9777 2.93913 18.4714C2.35564 17.9652 1.9744 17.2654 1.86542 16.5007H0.916672V5.50065C0.916672 5.25754 1.01325 5.02438 1.18516 4.85247C1.35707 4.68056 1.59022 4.58398 1.83334 4.58398H14.6667C14.9098 4.58398 15.1429 4.68056 15.3149 4.85247C15.4868 5.02438 15.5833 5.25754 15.5833 5.50065V7.33398H18.3333L21.0833 11.052V16.5007H19.2179C19.1089 17.2654 18.7277 17.9652 18.1442 18.4714C17.5607 18.9777 16.8142 19.2564 16.0417 19.2564C15.2692 19.2564 14.5226 18.9777 13.9391 18.4714C13.3556 17.9652 12.9744 17.2654 12.8654 16.5007H8.21792ZM13.75 6.41732H2.75001V13.7965C3.11169 13.4272 3.55722 13.1509 4.0487 12.9908C4.54017 12.8308 5.06302 12.7919 5.57277 12.8774C6.08251 12.9629 6.56405 13.1703 6.9764 13.482C7.38875 13.7936 7.7197 14.2003 7.94109 14.6673H13.1423C13.2963 14.3437 13.5025 14.0495 13.75 13.7965V6.41732ZM15.5833 11.9173H19.25V11.6561L17.4093 9.16732H15.5833V11.9173ZM16.0417 17.4173C16.4065 17.4173 16.7563 17.2724 17.0143 17.0145C17.2722 16.7565 17.4171 16.4067 17.4171 16.0419C17.4171 15.6771 17.2722 15.3272 17.0143 15.0693C16.7563 14.8113 16.4065 14.6664 16.0417 14.6664C15.6769 14.6664 15.327 14.8113 15.0691 15.0693C14.8111 15.3272 14.6662 15.6771 14.6662 16.0419C14.6662 16.4067 14.8111 16.7565 15.0691 17.0145C15.327 17.2724 15.6769 17.4173 16.0417 17.4173ZM6.41667 16.0423C6.41667 15.8617 6.38111 15.6829 6.31201 15.5161C6.24291 15.3493 6.14162 15.1977 6.01394 15.07C5.88626 14.9424 5.73468 14.8411 5.56786 14.772C5.40104 14.7029 5.22224 14.6673 5.04167 14.6673C4.8611 14.6673 4.68231 14.7029 4.51548 14.772C4.34866 14.8411 4.19708 14.9424 4.0694 15.07C3.94172 15.1977 3.84044 15.3493 3.77134 15.5161C3.70224 15.6829 3.66667 15.8617 3.66667 16.0423C3.66667 16.407 3.81154 16.7567 4.0694 17.0146C4.32726 17.2725 4.677 17.4173 5.04167 17.4173C5.40634 17.4173 5.75608 17.2725 6.01394 17.0146C6.27181 16.7567 6.41667 16.407 6.41667 16.0423Z"
          fill="black" fill-opacity="0.5"/>
</svg>
