<svg width="18" height="18" viewBox="0 0 18 18" fill="none" xmlns="http://www.w3.org/2000/svg">
<g clip-path="url(#clip0_119_2448)">
<path d="M16.5 15H1.5V13.5H2.25V8.27325C2.25 4.53225 5.2725 1.5 9 1.5C12.7275 1.5 15.75 4.53225 15.75 8.27325V13.5H16.5V15ZM3.75 13.5H14.25V8.27325C14.25 5.361 11.8995 3 9 3C6.1005 3 3.75 5.361 3.75 8.27325V13.5ZM7.125 15.75H10.875C10.875 16.2473 10.6775 16.7242 10.3258 17.0758C9.9742 17.4275 9.49728 17.625 9 17.625C8.50272 17.625 8.02581 17.4275 7.67418 17.0758C7.32254 16.7242 7.125 16.2473 7.125 15.75Z" fill="black"/>
</g>
<defs>
<clipPath id="clip0_119_2448">
<rect width="18" height="18" fill="white"/>
</clipPath>
</defs>
</svg>
