<svg width="20" height="20" viewBox="0 0 20 20" fill="none" xmlns="http://www.w3.org/2000/svg">
<g clip-path="url(#clip0_134_916)">
<path d="M4.99998 3.33366V16.667H15V3.33366H4.99998ZM4.16665 1.66699H15.8333C16.0543 1.66699 16.2663 1.75479 16.4226 1.91107C16.5788 2.06735 16.6666 2.27931 16.6666 2.50033V17.5003C16.6666 17.7213 16.5788 17.9333 16.4226 18.0896C16.2663 18.2459 16.0543 18.3337 15.8333 18.3337H4.16665C3.94563 18.3337 3.73367 18.2459 3.57739 18.0896C3.42111 17.9333 3.33331 17.7213 3.33331 17.5003V2.50033C3.33331 2.27931 3.42111 2.06735 3.57739 1.91107C3.73367 1.75479 3.94563 1.66699 4.16665 1.66699ZM9.99998 14.167C10.221 14.167 10.433 14.2548 10.5892 14.4111C10.7455 14.5674 10.8333 14.7793 10.8333 15.0003C10.8333 15.2213 10.7455 15.4333 10.5892 15.5896C10.433 15.7459 10.221 15.8337 9.99998 15.8337C9.77897 15.8337 9.567 15.7459 9.41072 15.5896C9.25444 15.4333 9.16665 15.2213 9.16665 15.0003C9.16665 14.7793 9.25444 14.5674 9.41072 14.4111C9.567 14.2548 9.77897 14.167 9.99998 14.167Z" fill="black"/>
</g>
<defs>
<clipPath id="clip0_134_916">
<rect width="20" height="20" fill="white"/>
</clipPath>
</defs>
</svg>
