<svg width="24" height="24" viewBox="0 0 24 24" fill="none" xmlns="http://www.w3.org/2000/svg">
<g clip-path="url(#clip0_119_2367)">
<path d="M11.4133 23C9.9505 22.9999 8.5215 22.5483 7.31155 21.7037C6.1016 20.8592 5.16652 19.6606 4.62753 18.2635C4.08854 16.8664 3.97051 15.3352 4.28875 13.8683C4.60698 12.4015 5.3468 11.0667 6.41228 10.037C7.7185 8.774 10.9266 6.5 10.4399 1.5C16.2799 5.5 19.1999 9.5 13.3599 15.5C14.3333 15.5 15.7933 15.5 18.2266 13.03C18.4894 13.803 18.7133 14.634 18.7133 15.5C18.7133 17.4891 17.9442 19.3968 16.5751 20.8033C15.2061 22.2098 13.3493 23 11.4133 23Z" fill="#ED1B24"/>
</g>
<defs>
<clipPath id="clip0_119_2367">
<rect width="24" height="24" fill="white"/>
</clipPath>
</defs>
</svg>
