<svg width="130" height="26" viewBox="0 0 130 26" fill="none" xmlns="http://www.w3.org/2000/svg">
<path d="M91.3655 19.2077H94.8461V7.61112C94.8461 6.7828 94.759 5.87164 94.585 4.96048C94.411 4.04932 94.0629 3.22099 93.5408 2.47549C92.3226 0.984504 90.6693 0.239009 88.494 0.239009C87.2758 0.239009 86.1446 0.57034 85.1004 1.31583C84.0562 2.06133 83.0991 2.88966 82.1419 3.71798C81.7068 2.55833 80.9237 1.64717 79.7925 1.06734C78.6613 0.487507 77.5301 0.156176 76.3119 0.156176C75.0937 0.156176 74.0495 0.487507 73.1794 1.06734C72.3092 1.64717 71.4391 2.30983 70.5689 3.05532V0.487507H67.2624V19.2905H70.5689V6.5343C71.4391 5.70597 72.2222 4.96048 72.9183 4.21498C73.6145 3.55232 74.4846 3.22099 75.6158 3.22099C76.834 3.22099 77.7912 3.63515 78.4003 4.46348C79.0094 5.29181 79.3574 6.2858 79.3574 7.44546V19.2077H82.838V6.5343C83.6212 5.70597 84.3173 4.96048 85.0134 4.21498C85.7095 3.55232 86.5797 3.22099 87.7108 3.22099C89.2771 3.22099 90.2343 3.71798 90.7564 4.79481C91.1914 5.87164 91.4525 6.94846 91.4525 8.10812L91.3655 19.2077ZM22.8849 7.27979C23.1459 6.45147 23.494 5.62314 24.1031 4.79481C24.7122 3.96648 25.4953 3.63515 26.5395 3.63515C27.7577 3.63515 28.6278 3.96648 29.2369 4.62915C29.759 5.29181 30.1071 6.20297 30.2811 7.27979H22.8849ZM30.8032 14.9004C29.498 15.2317 28.2798 15.3146 27.0616 15.2317C25.8434 15.1489 24.7992 14.7347 23.9291 14.1549C23.0589 13.4923 22.7979 12.4983 22.9719 11.0073H33.3266C34.0228 11.0073 34.3708 10.8416 34.5448 10.4274C34.7189 10.0961 34.8059 9.43345 34.8059 8.60512C34.8059 6.69997 34.2838 5.04331 33.3266 3.71798C32.2825 2.39266 31.0643 1.39867 29.585 0.818838C28.1058 0.239009 26.4525 0.0733433 24.7992 0.404674C23.1459 0.736005 21.5797 1.56433 20.1004 2.97249C18.5341 4.96048 17.751 7.27979 17.751 9.93044C17.751 12.1669 18.2731 13.9892 19.2303 15.3146C20.2744 16.7227 21.4926 17.7167 23.0589 18.2966C24.6252 18.9592 26.3655 19.2077 28.2798 19.1249C30.1941 19.042 32.0214 18.545 33.9357 17.7167V13.5751C33.1526 14.1549 32.1084 14.6519 30.8032 14.9004ZM11.4859 19.2077H16.5328L16.3588 7.77679C16.3588 7.27979 16.3588 6.7828 16.3588 6.2858C16.3588 5.7888 16.2718 5.29181 16.1847 4.79481C15.3146 1.89566 13.3133 0.487507 10.1807 0.487507C8.17938 0.487507 6.43909 1.233 4.87282 2.72399V0.487507H0V19.2905H4.87282V7.11413C5.48193 6.36863 6.17805 5.7888 6.87416 5.20897C7.39625 4.79481 8.00535 4.62915 8.70147 4.62915C9.83266 4.62915 10.6158 4.96048 11.0509 5.70597C11.4859 6.45147 11.66 7.27979 11.573 8.27379V19.2077H11.4859ZM62.8246 9.84761C63.8688 6.69997 64.826 3.55232 65.8701 0.487507H60.5622C60.0402 2.72399 59.4311 4.96048 58.7349 7.27979C58.0388 9.59911 57.4297 11.8356 56.9076 14.2377C56.1245 11.9184 55.4284 9.59911 54.8193 7.27979C54.2102 4.96048 53.6011 2.72399 52.905 0.487507H48.0321L44.3775 14.1549C43.8554 11.9184 43.1593 9.59911 42.4632 7.19696C41.7671 4.79481 41.071 2.55833 40.3748 0.404674H34.8929C35.9371 3.46949 36.8942 6.61713 37.9384 9.68194C38.9826 12.8296 39.9398 15.9772 40.9839 19.1249H47.162C47.6841 17.1369 48.2932 15.1489 48.8153 13.2438C49.3373 11.3386 49.9465 9.35061 50.4685 7.36263C50.9906 9.35061 51.5997 11.3386 52.1218 13.2438C52.6439 15.1489 53.253 17.1369 53.7751 19.1249H59.9531C60.8233 16.1429 61.7805 12.9953 62.8246 9.84761ZM130 0.487507H120.602C118.688 0.487507 117.035 0.984504 115.556 2.06133C114.076 3.13816 113.38 4.62915 113.38 6.69996C113.38 8.19095 113.902 9.43344 114.859 10.5103C114.337 11.0073 113.815 11.5871 113.554 12.2498C113.206 12.9124 113.032 13.5751 113.032 14.3206C113.032 14.9832 113.206 15.4802 113.554 15.8944C113.815 16.3086 114.25 16.7227 115.033 16.9712C114.511 17.4682 113.989 17.9652 113.554 18.4622C113.119 18.9592 112.771 19.4562 112.51 20.1189C112.249 20.9472 112.249 21.7755 112.51 22.6867C112.771 23.515 113.293 24.2605 114.163 24.7575C115.033 25.2545 116.078 25.6687 117.209 25.7515C118.34 25.9172 119.471 26 120.689 26C122.169 26 123.474 25.8343 124.692 25.503C125.91 25.1717 126.867 24.7575 127.564 24.2605C128.086 23.8463 128.695 23.1837 129.217 22.3554C129.565 21.6927 129.739 20.9472 129.739 20.1189C129.739 19.3734 129.565 18.7107 129.217 18.0481C128.695 17.0541 127.825 16.4742 126.693 16.0601C125.562 15.7287 124.431 15.4802 123.387 15.3146L118.514 15.1489C117.992 15.1489 117.383 14.9832 116.861 14.7347C116.339 14.4862 115.991 14.0721 115.991 13.5751C115.991 12.7468 116.252 12.1669 116.861 11.8356C117.122 11.9184 117.296 12.0841 117.557 12.1669C117.818 12.2498 118.079 12.4154 118.601 12.4983C119.471 12.7468 120.167 12.8296 120.602 12.8296C121.734 12.8296 122.691 12.6639 123.648 12.3326C126.519 11.1729 127.999 9.18495 127.999 6.45147C127.999 5.04331 127.564 4.04932 126.693 3.30382H130V0.487507ZM123.561 9.43345C122.865 10.0133 121.821 10.3446 120.602 10.3446C118.079 10.3446 116.774 9.10211 116.774 6.69996C116.774 5.54031 117.122 4.62915 117.818 3.88365C118.514 3.22099 119.471 2.88966 120.689 2.88966C123.387 2.88966 124.692 4.13215 124.692 6.69996C124.605 7.94246 124.257 8.85362 123.561 9.43345ZM125.127 22.6867C123.909 23.3493 122.517 23.6807 120.95 23.6807C119.21 23.6807 117.905 23.4322 117.122 23.018C116.252 22.6039 115.817 21.9412 115.817 21.1129C115.817 20.1189 116.165 19.3734 116.861 18.7107C117.296 18.2966 117.731 17.9652 117.992 17.7167L122.865 17.8824C123.735 17.9652 124.518 18.2137 125.214 18.545C125.91 18.8764 126.258 19.4562 126.345 20.2845C126.258 21.3614 125.91 22.1897 125.127 22.6867ZM97.1954 5.04331C97.9786 4.54631 99.0228 4.04932 100.328 3.63515C101.633 3.22099 102.851 2.97249 103.983 2.97249C105.114 2.97249 106.158 3.30382 107.028 3.88365C107.898 4.46348 108.246 5.54031 108.246 6.94846V8.19095H105.549C104.331 8.19095 103.112 8.27379 101.981 8.52229C100.85 8.77078 99.8059 9.10211 98.8487 9.59911C97.9786 10.0961 97.3695 10.6759 97.0214 11.3386C96.1513 12.7468 95.9772 14.2377 96.6734 15.8116C97.3695 17.3854 98.4137 18.3794 99.9799 18.7935C100.85 19.042 101.807 19.1249 102.938 19.1249C103.983 19.1249 104.94 18.8764 105.897 18.4622C106.332 18.2137 106.767 18.0481 107.028 17.7996C107.376 17.5511 107.724 17.3026 108.159 16.9712V19.042H111.466V6.61713C111.466 4.71198 110.944 3.22099 109.987 2.227C108.942 1.233 107.724 0.57034 106.332 0.239009C104.853 -0.0923222 103.286 -0.0923222 101.633 0.321842C99.9799 0.653173 98.5007 1.31583 97.1084 2.14416L97.1954 5.04331ZM108.246 14.3206C107.463 15.0661 106.767 15.6459 106.071 16.0601C105.375 16.4742 104.505 16.7227 103.373 16.7227C102.068 16.7227 101.024 16.3086 100.328 15.5631C99.6319 14.7347 99.6319 13.7407 100.154 12.4983C100.676 11.6699 101.633 11.0901 102.851 10.9244C103.286 10.8416 104.07 10.7588 105.201 10.7588H108.246V14.3206Z" fill="black"/>
<path d="M0.174011 25.5867V22.6047H1.21819C1.56625 22.6047 1.82729 22.6047 2.00132 22.6876C2.17535 22.7704 2.34938 22.8532 2.43639 23.0189C2.52341 23.1846 2.61042 23.3502 2.61042 23.5159C2.61042 23.6816 2.61042 23.8472 2.52341 24.0129C2.43639 24.1786 2.34938 24.2614 2.17535 24.2614C2.08834 24.3442 2.00132 24.3442 1.82729 24.4271C1.65326 24.4271 1.47923 24.5099 1.21819 24.5099H0.783114V25.5867H0.174011ZM0.783114 23.1017V23.9301H1.13117C1.39222 23.9301 1.56625 23.9301 1.65326 23.8472C1.74028 23.8472 1.82729 23.7644 1.82729 23.6816C1.91431 23.5987 1.91431 23.5159 1.91431 23.4331C1.91431 23.3502 1.91431 23.2674 1.82729 23.1846C1.74028 23.1017 1.65326 23.1017 1.56625 23.0189C1.47923 23.0189 1.3052 23.0189 1.13117 23.0189H0.783114V23.1017Z" fill="black"/>
<path d="M7.39622 22.6042H8.00532V24.2609C8.00532 24.5094 8.00532 24.6751 8.00532 24.7579C8.00532 24.8407 8.09234 25.0064 8.17935 25.0892C8.26637 25.1721 8.4404 25.1721 8.61442 25.1721C8.78845 25.1721 8.96248 25.1721 9.0495 25.0892C9.13651 25.0064 9.22353 24.9236 9.22353 24.8407C9.22353 24.7579 9.22353 24.5922 9.22353 24.3437V22.6871H9.83263V24.2609C9.83263 24.5922 9.83263 24.8407 9.74562 25.0064C9.74562 25.1721 9.6586 25.2549 9.57159 25.3377C9.48457 25.4206 9.39756 25.5034 9.22353 25.5862C9.0495 25.6691 8.87547 25.6691 8.61442 25.6691C8.35338 25.6691 8.09234 25.6691 7.91831 25.5862C7.74428 25.5034 7.65726 25.4206 7.57025 25.3377C7.48323 25.2549 7.48323 25.0892 7.39622 25.0064C7.39622 24.8407 7.3092 24.5922 7.3092 24.2609V22.6042H7.39622Z" fill="black"/>
<path d="M14.7925 22.6042H16.0107C16.2718 22.6042 16.4458 22.6042 16.5328 22.6042C16.6199 22.6042 16.7939 22.6871 16.8809 22.6871C16.9679 22.7699 17.0549 22.8527 17.1419 22.9356C17.229 23.0184 17.229 23.1841 17.229 23.2669C17.229 23.4326 17.229 23.5154 17.1419 23.6811C17.0549 23.7639 16.9679 23.8467 16.7939 23.9296C16.9679 24.0124 17.1419 24.0952 17.229 24.1781C17.316 24.2609 17.403 24.4266 17.403 24.5922C17.403 24.7579 17.403 24.8407 17.316 25.0064C17.229 25.1721 17.1419 25.2549 17.0549 25.3377C16.9679 25.4206 16.7939 25.4206 16.6199 25.5034C16.5328 25.5034 16.2718 25.5034 15.8367 25.5034H14.7925V22.6042ZM15.4016 23.1012V23.7639H15.8367C16.0978 23.7639 16.2718 23.7639 16.2718 23.7639C16.3588 23.7639 16.4458 23.6811 16.5328 23.6811C16.6199 23.5982 16.6199 23.5154 16.6199 23.4326C16.6199 23.3497 16.6199 23.2669 16.5328 23.1841C16.4458 23.1012 16.3588 23.1012 16.2718 23.1012C16.1848 23.1012 16.0107 23.1012 15.7497 23.1012H15.4016ZM15.4016 24.3437V25.1721H16.0107C16.2718 25.1721 16.3588 25.1721 16.4458 25.1721C16.5328 25.1721 16.6199 25.0892 16.7069 25.0892C16.7939 25.0064 16.7939 24.9236 16.7939 24.8407C16.7939 24.7579 16.7939 24.6751 16.7069 24.5922C16.6199 24.5094 16.6199 24.5094 16.5328 24.4266C16.4458 24.4266 16.2718 24.3437 16.0107 24.3437H15.4016Z" fill="black"/>
<path d="M22.2758 25.5864V22.6873H22.8849V25.0894H24.4511V25.5864H22.2758Z" fill="black"/>
<path d="M29.1499 25.5862V22.6042H29.759V25.5862H29.1499Z" fill="black"/>
<path d="M34.4578 24.6751L35.0669 24.5922C35.0669 24.7579 35.1539 24.9236 35.3279 25.0064C35.415 25.0892 35.589 25.1721 35.763 25.1721C35.937 25.1721 36.1111 25.1721 36.1981 25.0892C36.2851 25.0064 36.3721 24.9236 36.3721 24.8407C36.3721 24.7579 36.3721 24.6751 36.2851 24.6751C36.2851 24.5922 36.1981 24.5922 36.0241 24.5094C35.937 24.5094 35.763 24.4266 35.502 24.3437C35.1539 24.2609 34.8929 24.1781 34.8059 24.0124C34.6318 23.8467 34.5448 23.6811 34.5448 23.4326C34.5448 23.2669 34.6318 23.1012 34.7188 23.0184C34.8059 22.8527 34.9799 22.7699 35.0669 22.6871C35.2409 22.6042 35.415 22.6042 35.676 22.6042C36.0241 22.6042 36.3721 22.6871 36.5462 22.8527C36.7202 23.0184 36.8072 23.2669 36.8942 23.5154H36.2851C36.2851 23.3497 36.1981 23.2669 36.1111 23.1841C36.0241 23.1012 35.85 23.1012 35.676 23.1012C35.502 23.1012 35.3279 23.1012 35.2409 23.1841C35.1539 23.2669 35.1539 23.2669 35.1539 23.3497C35.1539 23.4326 35.1539 23.5154 35.2409 23.5154C35.3279 23.5982 35.502 23.6811 35.85 23.6811C36.1981 23.7639 36.3721 23.8467 36.5462 23.9296C36.7202 24.0124 36.8072 24.0952 36.8942 24.2609C36.9812 24.4266 36.9812 24.5094 36.9812 24.7579C36.9812 24.9236 36.8942 25.0892 36.8072 25.2549C36.7202 25.4206 36.5461 25.5034 36.3721 25.5862C36.1981 25.6691 35.937 25.6691 35.676 25.6691C35.2409 25.6691 34.9799 25.5862 34.8059 25.4206C34.6318 25.2549 34.5448 25.0064 34.4578 24.6751Z" fill="black"/>
<path d="M41.8541 25.5862V22.6042H42.4632V23.7639H43.6814V22.6042H44.2905V25.5862H43.6814V24.2609H42.4632V25.5862H41.8541Z" fill="black"/>
<path d="M49.2503 25.5862V22.6042H49.8594V25.5862H49.2503Z" fill="black"/>
<path d="M54.7323 25.5862V22.6042H55.3414L56.6466 24.5922V22.6042H57.2557V25.5862H56.5596L55.3414 23.6811V25.5862H54.7323Z" fill="black"/>
<path d="M63.6077 24.509V24.012H65V25.1716C64.8259 25.2545 64.6519 25.4201 64.3909 25.503C64.1298 25.5858 63.8688 25.6686 63.6077 25.6686C63.2597 25.6686 62.9986 25.5858 62.7376 25.503C62.4766 25.3373 62.3025 25.1716 62.2155 24.9231C62.1285 24.6746 62.0415 24.4261 62.0415 24.0948C62.0415 23.7635 62.1285 23.515 62.2155 23.2665C62.3895 23.018 62.5636 22.8523 62.8246 22.6867C62.9986 22.6038 63.2597 22.521 63.6077 22.521C63.9558 22.521 64.3039 22.6038 64.4779 22.7695C64.6519 22.9352 64.8259 23.1008 64.913 23.4322L64.3039 23.515C64.2168 23.3493 64.2168 23.2665 64.0428 23.1837C63.9558 23.1008 63.7818 23.018 63.6077 23.018C63.3467 23.018 63.0857 23.1008 62.9116 23.2665C62.7376 23.4322 62.6506 23.6807 62.6506 24.012C62.6506 24.3433 62.7376 24.5918 62.9116 24.8403C63.0857 25.006 63.2597 25.0888 63.5207 25.0888C63.6948 25.0888 63.7818 25.0888 63.9558 25.006C64.1298 24.9231 64.2168 24.9231 64.3039 24.8403V24.4262H63.6077V24.509Z" fill="black"/>
<path d="M77.6171 25.5867V22.6047H78.2262V23.7644H79.4444V22.6047H80.0535V25.5867H79.4444V24.2614H78.2262V25.5867H77.6171Z" fill="black"/>
<path d="M85.1874 24.0952C85.1874 23.7639 85.2744 23.5154 85.3614 23.3497C85.4484 23.1841 85.5354 23.1012 85.6225 22.9356C85.7095 22.8527 85.8835 22.6871 86.0575 22.6871C86.2316 22.6042 86.4926 22.6042 86.7536 22.6042C87.1887 22.6042 87.5368 22.7699 87.8848 23.0184C88.2329 23.2669 88.3199 23.6811 88.3199 24.1781C88.3199 24.6751 88.1459 25.0064 87.8848 25.3377C87.6238 25.6691 87.2757 25.7519 86.7536 25.7519C86.3186 25.7519 85.8835 25.5862 85.6225 25.3377C85.2744 24.9236 85.1874 24.5922 85.1874 24.0952ZM85.7965 24.0952C85.7965 24.4266 85.8835 24.6751 86.0575 24.8407C86.2316 25.0064 86.4056 25.0892 86.6666 25.0892C86.9277 25.0892 87.1017 25.0064 87.2757 24.8407C87.4498 24.6751 87.5368 24.4266 87.5368 24.0952C87.5368 23.7639 87.4498 23.5154 87.2757 23.3497C87.1017 23.1841 86.9277 23.1012 86.6666 23.1012C86.4056 23.1012 86.2316 23.1841 86.0575 23.3497C85.8835 23.5154 85.7965 23.7639 85.7965 24.0952Z" fill="black"/>
<path d="M93.1928 22.6042H93.8019V24.2609C93.8019 24.5094 93.8019 24.6751 93.8019 24.7579C93.8019 24.8407 93.8889 25.0064 93.9759 25.0892C94.0629 25.1721 94.2369 25.1721 94.411 25.1721C94.585 25.1721 94.759 25.1721 94.846 25.0892C94.9331 25.0064 95.0201 24.9236 95.0201 24.8407C95.0201 24.7579 95.0201 24.5922 95.0201 24.3437V22.6871H95.6292V24.2609C95.6292 24.5922 95.6292 24.8407 95.5422 25.0064C95.5422 25.1721 95.4551 25.2549 95.3681 25.3377C95.2811 25.4206 95.1941 25.5034 95.0201 25.5862C94.846 25.6691 94.672 25.6691 94.411 25.6691C94.1499 25.6691 93.8889 25.6691 93.7148 25.5862C93.5408 25.5034 93.4538 25.4206 93.3668 25.3377C93.2798 25.2549 93.1928 25.0892 93.1928 25.0064C93.1928 24.8407 93.1058 24.5922 93.1058 24.2609V22.6042H93.1928Z" fill="black"/>
<path d="M100.676 24.5918L101.285 24.509C101.285 24.6746 101.372 24.8403 101.546 24.9231C101.633 25.006 101.807 25.0888 101.981 25.0888C102.155 25.0888 102.329 25.0888 102.416 25.006C102.503 24.9231 102.59 24.8403 102.59 24.7575C102.59 24.6746 102.59 24.5918 102.503 24.5918C102.416 24.5918 102.416 24.509 102.242 24.4261C102.155 24.4261 101.981 24.3433 101.72 24.2605C101.372 24.1777 101.111 24.0948 101.024 23.9292C100.85 23.7635 100.763 23.5978 100.763 23.3493C100.763 23.1837 100.85 23.018 100.937 22.9352C101.024 22.7695 101.198 22.6867 101.285 22.6038C101.372 22.521 101.633 22.521 101.894 22.521C102.242 22.521 102.59 22.6038 102.764 22.7695C102.938 22.9352 103.025 23.1837 103.112 23.4322H102.503C102.503 23.2665 102.416 23.1837 102.329 23.1008C102.242 23.018 102.068 23.018 101.894 23.018C101.72 23.018 101.546 23.018 101.459 23.1008C101.372 23.1837 101.372 23.1837 101.372 23.2665C101.372 23.3493 101.372 23.4322 101.459 23.4322C101.546 23.515 101.72 23.5978 102.068 23.5978C102.416 23.6807 102.59 23.7635 102.764 23.8463C102.938 23.9292 103.025 24.012 103.112 24.1777C103.199 24.3433 103.199 24.4261 103.199 24.6746C103.199 24.8403 103.112 25.006 103.025 25.1716C102.938 25.3373 102.764 25.4201 102.59 25.503C102.416 25.5858 102.155 25.5858 101.894 25.5858C101.459 25.5858 101.198 25.503 101.024 25.3373C100.85 25.1716 100.763 24.9231 100.676 24.5918Z" fill="black"/>
<path d="M108.333 25.5862V22.6042H110.683V23.1012H109.029V23.7639H110.596V24.2609H109.029V25.0892H110.77V25.5862H108.333Z" fill="black"/>
</svg>
