<svg width="19" height="20" viewBox="0 0 19 20" fill="none" xmlns="http://www.w3.org/2000/svg">
<g clip-path="url(#clip0_119_2453)">
<path d="M15.1515 19.5454H13.6363V18.0303C13.6363 17.4275 13.3969 16.8495 12.9707 16.4232C12.5444 15.997 11.9664 15.7576 11.3636 15.7576H6.81815C6.21539 15.7576 5.63731 15.997 5.21109 16.4232C4.78487 16.8495 4.54542 17.4275 4.54542 18.0303V19.5454H3.03027V18.0303C3.03027 17.0257 3.42935 16.0622 4.13972 15.3519C4.85008 14.6415 5.81354 14.2424 6.81815 14.2424H11.3636C12.3682 14.2424 13.3317 14.6415 14.042 15.3519C14.7524 16.0622 15.1515 17.0257 15.1515 18.0303V19.5454ZM9.09088 12.7273C8.49396 12.7273 7.90289 12.6097 7.35141 12.3813C6.79993 12.1528 6.29884 11.818 5.87676 11.3959C5.45467 10.9738 5.11986 10.4728 4.89143 9.92128C4.663 9.3698 4.54542 8.77873 4.54542 8.18181C4.54542 7.58489 4.663 6.99382 4.89143 6.44234C5.11986 5.89086 5.45467 5.38977 5.87676 4.96769C6.29884 4.5456 6.79993 4.21079 7.35141 3.98235C7.90289 3.75392 8.49396 3.63635 9.09088 3.63635C10.2964 3.63635 11.4526 4.11525 12.305 4.96769C13.1574 5.82012 13.6363 6.97628 13.6363 8.18181C13.6363 9.38734 13.1574 10.5435 12.305 11.3959C11.4526 12.2484 10.2964 12.7273 9.09088 12.7273ZM9.09088 11.2121C9.89457 11.2121 10.6653 10.8928 11.2336 10.3246C11.8019 9.75626 12.1212 8.9855 12.1212 8.18181C12.1212 7.37812 11.8019 6.60735 11.2336 6.03906C10.6653 5.47077 9.89457 5.1515 9.09088 5.1515C8.28719 5.1515 7.51642 5.47077 6.94813 6.03906C6.37984 6.60735 6.06058 7.37812 6.06058 8.18181C6.06058 8.9855 6.37984 9.75626 6.94813 10.3246C7.51642 10.8928 8.28719 11.2121 9.09088 11.2121Z" fill="black"/>
</g>
<defs>
<clipPath id="clip0_119_2453">
<rect width="18.1818" height="20" fill="white"/>
</clipPath>
</defs>
</svg>
