<svg width="24" height="24" viewBox="0 0 24 24" fill="none" xmlns="http://www.w3.org/2000/svg">
<path d="M8 11.333L18.223 4.51799C18.2983 4.46789 18.3858 4.43915 18.4761 4.43482C18.5664 4.4305 18.6563 4.45077 18.736 4.49345C18.8157 4.53614 18.8824 4.59966 18.9289 4.67724C18.9754 4.75482 19 4.84355 19 4.93399L19 19.066C19 19.1564 18.9754 19.2452 18.9289 19.3228C18.8824 19.4003 18.8157 19.4639 18.736 19.5065C18.6563 19.5492 18.5664 19.5695 18.4761 19.5652C18.3858 19.5608 18.2983 19.5321 18.223 19.482L8 12.667L8 19C8 19.2652 7.89464 19.5196 7.7071 19.7071C7.51957 19.8946 7.26521 20 7 20C6.73478 20 6.48043 19.8946 6.29289 19.7071C6.10535 19.5196 6 19.2652 6 19L6 5C6 4.73478 6.10535 4.48042 6.29289 4.29289C6.48042 4.10535 6.73478 4 7 4C7.26521 4 7.51957 4.10535 7.7071 4.29289C7.89464 4.48042 8 4.73478 8 5L8 11.333Z" fill="#85919A"/>
</svg>
