<svg width="20" height="20" viewBox="0 0 20 20" fill="none" xmlns="http://www.w3.org/2000/svg">
<g clip-path="url(#clip0_134_907)">
<path d="M2.5 15.417V4.16699C2.5 3.50395 2.76339 2.86807 3.23223 2.39923C3.70107 1.93038 4.33696 1.66699 5 1.66699H16.6667C16.8877 1.66699 17.0996 1.75479 17.2559 1.91107C17.4122 2.06735 17.5 2.27931 17.5 2.50033V17.5003C17.5 17.7213 17.4122 17.9333 17.2559 18.0896C17.0996 18.2459 16.8877 18.3337 16.6667 18.3337H5.41667C4.64312 18.3337 3.90125 18.0264 3.35427 17.4794C2.80729 16.9324 2.5 16.1905 2.5 15.417ZM15.8333 16.667V14.167H5.41667C5.08515 14.167 4.7672 14.2987 4.53278 14.5331C4.29836 14.7675 4.16667 15.0855 4.16667 15.417C4.16667 15.7485 4.29836 16.0665 4.53278 16.3009C4.7672 16.5353 5.08515 16.667 5.41667 16.667H15.8333ZM4.16667 12.7812C4.55724 12.5957 4.98429 12.4997 5.41667 12.5003H15.8333V3.33366H5C4.77899 3.33366 4.56702 3.42146 4.41074 3.57774C4.25446 3.73402 4.16667 3.94598 4.16667 4.16699V12.7812Z" fill="#ED1B24"/>
</g>
<defs>
<clipPath id="clip0_134_907">
<rect width="20" height="20" fill="white"/>
</clipPath>
</defs>
</svg>
