<svg width="33" height="24" viewBox="0 0 33 24" fill="none" xmlns="http://www.w3.org/2000/svg">
<g clip-path="url(#clip0_140_991)">
<path d="M17 7H22C23.5913 7 25.1174 7.63214 26.2426 8.75736C27.3679 9.88258 28 11.4087 28 13C28 14.5913 27.3679 16.1174 26.2426 17.2426C25.1174 18.3679 23.5913 19 22 19H13V21H22C24.1217 21 26.1566 20.1571 27.6569 18.6569C29.1571 17.1566 30 15.1217 30 13C30 10.8783 29.1571 8.84344 27.6569 7.34315C26.1566 5.84285 24.1217 5 22 5H17V1L11 6L17 11V7Z" fill="#85919A"/>
</g>
<path d="M0.600586 16.7412V15.6768C1.05632 16.0381 1.57064 16.2188 2.14355 16.2188C2.60905 16.2188 2.98014 16.113 3.25684 15.9014C3.53678 15.6898 3.67676 15.4033 3.67676 15.042C3.67676 14.2477 3.06966 13.8506 1.85547 13.8506H1.31348V12.9424H1.83105C2.90853 12.9424 3.44727 12.568 3.44727 11.8193C3.44727 11.1292 3.02734 10.7842 2.1875 10.7842C1.71875 10.7842 1.27767 10.9518 0.864258 11.2871V10.2812C1.33952 10.0143 1.90104 9.88086 2.54883 9.88086C3.17057 9.88086 3.66862 10.0371 4.04297 10.3496C4.41732 10.6621 4.60449 11.0625 4.60449 11.5508C4.60449 12.472 4.13574 13.0645 3.19824 13.3281V13.3477C3.7028 13.3965 4.10156 13.5739 4.39453 13.8799C4.6875 14.1826 4.83398 14.5618 4.83398 15.0176C4.83398 15.6458 4.59798 16.1536 4.12598 16.541C3.65397 16.9251 3.03223 17.1172 2.26074 17.1172C1.56738 17.1172 1.014 16.9919 0.600586 16.7412ZM8.25684 17.1172C7.52767 17.1172 6.95801 16.8193 6.54785 16.2236C6.14095 15.6279 5.9375 14.7669 5.9375 13.6406C5.9375 12.4036 6.15072 11.4678 6.57715 10.833C7.00358 10.1982 7.61882 9.88086 8.42285 9.88086C9.96257 9.88086 10.7324 11.0771 10.7324 13.4697C10.7324 14.6546 10.5143 15.5596 10.0781 16.1846C9.64518 16.8063 9.03809 17.1172 8.25684 17.1172ZM8.36914 10.7842C7.51953 10.7842 7.09473 11.7201 7.09473 13.5918C7.09473 15.3431 7.51139 16.2188 8.34473 16.2188C9.16504 16.2188 9.5752 15.3285 9.5752 13.5479C9.5752 11.7054 9.17318 10.7842 8.36914 10.7842Z" fill="#85919A"/>
<defs>
<clipPath id="clip0_140_991">
<rect width="24" height="24" fill="white" transform="matrix(-1 0 0 1 33 0)"/>
</clipPath>
</defs>
</svg>
