<svg width="33" height="24" viewBox="0 0 33 24" fill="none" xmlns="http://www.w3.org/2000/svg">
<g clip-path="url(#clip0_140_990)">
<path d="M16 7H11C9.4087 7 7.88258 7.63214 6.75736 8.75736C5.63214 9.88258 5 11.4087 5 13C5 14.5913 5.63214 16.1174 6.75736 17.2426C7.88258 18.3679 9.4087 19 11 19H20V21H11C8.87827 21 6.84344 20.1571 5.34315 18.6569C3.84285 17.1566 3 15.1217 3 13C3 10.8783 3.84285 8.84344 5.34315 7.34315C6.84344 5.84285 8.87827 5 11 5H16V1L22 6L16 11V7Z" fill="#85919A"/>
</g>
<path d="M21.6006 16.7412V15.6768C22.0563 16.0381 22.5706 16.2188 23.1436 16.2188C23.609 16.2188 23.9801 16.113 24.2568 15.9014C24.5368 15.6898 24.6768 15.4033 24.6768 15.042C24.6768 14.2477 24.0697 13.8506 22.8555 13.8506H22.3135V12.9424H22.8311C23.9085 12.9424 24.4473 12.568 24.4473 11.8193C24.4473 11.1292 24.0273 10.7842 23.1875 10.7842C22.7188 10.7842 22.2777 10.9518 21.8643 11.2871V10.2812C22.3395 10.0143 22.901 9.88086 23.5488 9.88086C24.1706 9.88086 24.6686 10.0371 25.043 10.3496C25.4173 10.6621 25.6045 11.0625 25.6045 11.5508C25.6045 12.472 25.1357 13.0645 24.1982 13.3281V13.3477C24.7028 13.3965 25.1016 13.5739 25.3945 13.8799C25.6875 14.1826 25.834 14.5618 25.834 15.0176C25.834 15.6458 25.598 16.1536 25.126 16.541C24.654 16.9251 24.0322 17.1172 23.2607 17.1172C22.5674 17.1172 22.014 16.9919 21.6006 16.7412ZM29.2568 17.1172C28.5277 17.1172 27.958 16.8193 27.5479 16.2236C27.141 15.6279 26.9375 14.7669 26.9375 13.6406C26.9375 12.4036 27.1507 11.4678 27.5771 10.833C28.0036 10.1982 28.6188 9.88086 29.4229 9.88086C30.9626 9.88086 31.7324 11.0771 31.7324 13.4697C31.7324 14.6546 31.5143 15.5596 31.0781 16.1846C30.6452 16.8063 30.0381 17.1172 29.2568 17.1172ZM29.3691 10.7842C28.5195 10.7842 28.0947 11.7201 28.0947 13.5918C28.0947 15.3431 28.5114 16.2188 29.3447 16.2188C30.165 16.2188 30.5752 15.3285 30.5752 13.5479C30.5752 11.7054 30.1732 10.7842 29.3691 10.7842Z" fill="#85919A"/>
<defs>
<clipPath id="clip0_140_990">
<rect width="24" height="24" fill="white"/>
</clipPath>
</defs>
</svg>
