<svg width="20" height="20" viewBox="0 0 20 20" fill="none" xmlns="http://www.w3.org/2000/svg">
<g clip-path="url(#clip0_134_896)">
<path d="M10.9333 14.1856L7.43417 12.2773C6.97734 12.7656 6.38416 13.1053 5.73174 13.2522C5.07931 13.399 4.3978 13.3462 3.77578 13.1006C3.15375 12.8551 2.61998 12.4281 2.24382 11.8751C1.86765 11.3222 1.6665 10.6689 1.6665 10.0002C1.6665 9.33143 1.86765 8.67815 2.24382 8.12523C2.61998 7.5723 3.15375 7.14531 3.77578 6.89973C4.3978 6.65415 5.07931 6.60135 5.73174 6.74819C6.38416 6.89503 6.97734 7.23471 7.43417 7.7231L10.9342 5.81476C10.7355 5.02816 10.8305 4.19609 11.2014 3.47451C11.5723 2.75294 12.1936 2.19141 12.9489 1.89518C13.7042 1.59895 14.5416 1.58835 15.3042 1.86537C16.0667 2.1424 16.7021 2.68803 17.0911 3.39998C17.4801 4.11193 17.5962 4.94134 17.4174 5.73272C17.2387 6.5241 16.7775 7.22313 16.1202 7.69877C15.4629 8.17442 14.6548 8.39402 13.8472 8.31642C13.0396 8.23883 12.288 7.86936 11.7333 7.27726L8.23334 9.1856C8.36768 9.72006 8.36768 10.2795 8.23334 10.8139L11.7325 12.7223C12.2872 12.1302 13.0387 11.7607 13.8463 11.6831C14.6539 11.6055 15.4621 11.8251 16.1194 12.3008C16.7766 12.7764 17.2379 13.4754 17.4166 14.2668C17.5953 15.0582 17.4793 15.8876 17.0903 16.5995C16.7012 17.3115 16.0659 17.8571 15.3033 18.1342C14.5408 18.4112 13.7034 18.4006 12.9481 18.1043C12.1928 17.8081 11.5714 17.2466 11.2005 16.525C10.8296 15.8034 10.7346 14.9714 10.9333 14.1848V14.1856ZM5.00001 11.6664C5.44204 11.6664 5.86596 11.4908 6.17852 11.1783C6.49108 10.8657 6.66668 10.4418 6.66668 9.99976C6.66668 9.55774 6.49108 9.13381 6.17852 8.82125C5.86596 8.50869 5.44204 8.3331 5.00001 8.3331C4.55798 8.3331 4.13406 8.50869 3.8215 8.82125C3.50894 9.13381 3.33334 9.55774 3.33334 9.99976C3.33334 10.4418 3.50894 10.8657 3.8215 11.1783C4.13406 11.4908 4.55798 11.6664 5.00001 11.6664ZM14.1667 6.66643C14.6087 6.66643 15.0326 6.49084 15.3452 6.17827C15.6577 5.86571 15.8333 5.44179 15.8333 4.99976C15.8333 4.55774 15.6577 4.13381 15.3452 3.82125C15.0326 3.50869 14.6087 3.3331 14.1667 3.3331C13.7246 3.3331 13.3007 3.50869 12.9882 3.82125C12.6756 4.13381 12.5 4.55774 12.5 4.99976C12.5 5.44179 12.6756 5.86571 12.9882 6.17827C13.3007 6.49084 13.7246 6.66643 14.1667 6.66643ZM14.1667 16.6664C14.6087 16.6664 15.0326 16.4908 15.3452 16.1783C15.6577 15.8657 15.8333 15.4418 15.8333 14.9998C15.8333 14.5577 15.6577 14.1338 15.3452 13.8213C15.0326 13.5087 14.6087 13.3331 14.1667 13.3331C13.7246 13.3331 13.3007 13.5087 12.9882 13.8213C12.6756 14.1338 12.5 14.5577 12.5 14.9998C12.5 15.4418 12.6756 15.8657 12.9882 16.1783C13.3007 16.4908 13.7246 16.6664 14.1667 16.6664Z" fill="white"/>
</g>
<defs>
<clipPath id="clip0_134_896">
<rect width="20" height="20" fill="white"/>
</clipPath>
</defs>
</svg>
