<svg width="24" height="24" viewBox="0 0 24 24" fill="none" xmlns="http://www.w3.org/2000/svg">
    <path d="M3.33969 6.9991C3.77219 6.24999 4.28645 5.57926 4.86536 4.98857C5.32928 5.28995 5.86752 5.45718 6.42055 5.47177C6.97359 5.48636 7.51989 5.34774 7.99906 5.07124C8.47824 4.79474 8.87162 4.39112 9.13573 3.90501C9.39984 3.41889 9.52439 2.86922 9.49561 2.31674C11.1373 1.89113 12.8603 1.89048 14.5023 2.31484C14.473 2.8677 14.5971 3.4179 14.8611 3.90454C15.1251 4.39117 15.5186 4.79527 15.9981 5.07209C16.4776 5.3489 17.0243 5.48765 17.5777 5.47295C18.1312 5.45826 18.6697 5.29071 19.1338 4.98884C20.3223 6.19869 21.1833 7.69119 21.6356 9.32574C21.1424 9.57695 20.7283 9.95971 20.4391 10.4317C20.15 10.9036 19.997 11.4463 19.9972 11.9998C19.9974 12.5533 20.1506 13.096 20.4401 13.5677C20.7295 14.0395 21.1438 14.422 21.6372 14.6729C21.4156 15.4688 21.0918 16.2495 20.6593 16.9986C20.2268 17.7477 19.7126 18.4184 19.1337 19.0091C18.6698 18.7075 18.1315 18.5401 17.5784 18.5254C17.0252 18.5106 16.4788 18.6492 15.9995 18.9256C15.5202 19.2021 15.1267 19.6058 14.8625 20.0919C14.5983 20.5781 14.4738 21.1279 14.5026 21.6805C12.8609 22.1061 11.1378 22.1067 9.49583 21.6824C9.5252 21.1295 9.40102 20.5793 9.13702 20.0927C8.87303 19.606 8.47952 19.2019 8.00006 18.9251C7.5206 18.6483 6.97389 18.5095 6.42045 18.5242C5.86701 18.5389 5.32843 18.7065 4.86433 19.0083C3.67581 17.7985 2.81487 16.306 2.36261 14.6715C2.8558 14.4202 3.26987 14.0375 3.55903 13.5655C3.84818 13.0936 4.00113 12.5508 4.00096 11.9974C4.0008 11.4439 3.84751 10.9012 3.55808 10.4295C3.26864 9.95768 2.85433 9.57518 2.36099 9.32426C2.58295 8.5298 2.90669 7.74908 3.33969 6.9991ZM6.00008 11.9992C6.00017 13.259 5.52856 14.4359 4.72652 15.333C4.93485 15.7882 5.18521 16.2226 5.47475 16.6311C6.67919 16.3783 7.93457 16.5792 8.99995 17.1952C10.0911 17.8252 10.8758 18.8221 11.2511 19.9661C11.7497 20.0126 12.251 20.0122 12.7494 19.965C13.1327 18.796 13.934 17.8097 14.9998 17.1952C16.0649 16.5796 17.3198 16.3789 18.5237 16.6316C18.8132 16.2227 19.0643 15.7878 19.2737 15.3326C18.4525 14.4163 17.9985 13.229 17.9989 11.9985C17.9982 10.7683 18.4518 9.58109 19.2725 8.66465C19.0643 8.20949 18.8138 7.77491 18.5243 7.36663C17.3202 7.61937 16.0651 7.41864 14.9999 6.80294C13.9337 6.18834 13.132 5.20161 12.7488 4.03213C12.2504 3.98554 11.7488 3.98588 11.2505 4.03315C10.8672 5.20215 10.0658 6.1885 9.00008 6.80302C7.93498 7.41857 6.68013 7.61925 5.47619 7.36658C5.18667 7.77554 4.9356 8.21041 4.72619 8.66562C5.54741 9.58193 6.00136 10.7692 6.00094 11.9997L6.00008 11.9992ZM10.4999 14.5972C9.81089 14.1993 9.3081 13.5441 9.10217 12.7756C8.89624 12.007 9.00404 11.1881 9.40187 10.4991C9.79969 9.81004 10.4549 9.30725 11.2235 9.10132C11.992 8.89539 12.8109 9.0032 13.4999 9.40102C14.189 9.79885 14.6918 10.4541 14.8977 11.2226C15.1037 11.9912 14.9958 12.81 14.598 13.4991C14.2002 14.1881 13.5449 14.6909 12.7764 14.8969C12.0079 15.1028 11.189 14.995 10.4999 14.5972ZM11.4999 12.8651C11.7296 12.9977 12.0026 13.0337 12.2588 12.965C12.5149 12.8964 12.7334 12.7288 12.866 12.4991C12.9986 12.2694 13.0345 11.9965 12.9659 11.7403C12.8972 11.4841 12.7296 11.2657 12.4999 11.1331C12.2703 11.0005 11.9973 10.9645 11.7411 11.0332C11.4849 11.1018 11.2665 11.2694 11.1339 11.4991C11.0013 11.7288 10.9654 12.0017 11.034 12.2579C11.1027 12.5141 11.2703 12.7325 11.4999 12.8651Z"
          fill="black"/>
</svg>
