<svg width="56" height="56" viewBox="0 0 56 56" fill="none" xmlns="http://www.w3.org/2000/svg">
    <path d="M10.1788 8.38743C7.60319 10.7277 5.51381 13.5524 4.0299 16.7002C2.546 19.848 1.69663 23.2573 1.53029 26.7333C1.36395 30.2094 1.8839 33.6842 3.06045 36.9593C4.237 40.2344 6.04711 43.2457 8.38743 45.8213C10.7277 48.3968 13.5524 50.4862 16.7002 51.9701C19.848 53.454 23.2573 54.3034 26.7333 54.4697C30.2094 54.6361 33.6842 54.1161 36.9593 52.9396C40.2344 51.763 43.2457 49.9529 45.8213 47.6126C48.3968 45.2723 50.4862 42.4476 51.9701 39.2998C53.454 36.152 54.3034 32.7427 54.4697 29.2667C54.6361 25.7906 54.1161 22.3158 52.9396 19.0407C51.763 15.7656 49.9529 12.7543 47.6126 10.1787C45.2723 7.60319 42.4476 5.51381 39.2998 4.0299C36.152 2.546 32.7427 1.69663 29.2667 1.53029C25.7906 1.36395 22.3158 1.8839 19.0407 3.06045C15.7656 4.237 12.7543 6.04711 10.1787 8.38743L10.1788 8.38743Z"
          stroke="#45ED1B" stroke-width="3"/>
    <rect x="20" y="18" width="5" height="20" rx="1" fill="black"/>
    <rect x="31" y="18" width="5" height="20" rx="1" fill="black"/>
</svg>
