<svg width="22" height="22" viewBox="0 0 22 22" fill="none" xmlns="http://www.w3.org/2000/svg">
    <path d="M2.75 4.57875C2.75 3.56858 3.56858 2.75 4.57875 2.75H17.4212C18.4314 2.75 19.25 3.56858 19.25 4.57875V17.4212C19.25 17.9063 19.0573 18.3714 18.7144 18.7144C18.3714 19.0573 17.9063 19.25 17.4212 19.25H4.57875C4.09374 19.25 3.62859 19.0573 3.28563 18.7144C2.94267 18.3714 2.75 17.9063 2.75 17.4212V4.57875ZM4.58333 4.58333V17.4167H17.4167V4.58333H4.58333ZM7.30767 16.665C6.7439 16.4208 6.20616 16.1205 5.70258 15.7685C6.28399 14.8674 7.08213 14.1266 8.02394 13.6138C8.96575 13.101 10.0211 12.8327 11.0935 12.8333C13.2935 12.8333 15.2341 13.9398 16.39 15.6264C15.8961 15.9918 15.3666 16.3066 14.8097 16.566C14.3852 15.9775 13.8268 15.4984 13.1807 15.1681C12.5345 14.8379 11.8191 14.666 11.0935 14.6667C9.52142 14.6667 8.13267 15.4587 7.30767 16.665ZM11 11.9167C10.5787 11.9167 10.1615 11.8337 9.77222 11.6724C9.38297 11.5112 9.02929 11.2749 8.73137 10.977C8.43344 10.679 8.19712 10.3254 8.03589 9.93611C7.87465 9.54686 7.79167 9.12966 7.79167 8.70833C7.79167 8.28701 7.87465 7.86981 8.03589 7.48056C8.19712 7.0913 8.43344 6.73762 8.73137 6.4397C9.02929 6.14178 9.38297 5.90545 9.77222 5.74422C10.1615 5.58299 10.5787 5.5 11 5.5C11.8509 5.5 12.667 5.83802 13.2686 6.4397C13.8703 7.04138 14.2083 7.85743 14.2083 8.70833C14.2083 9.55924 13.8703 10.3753 13.2686 10.977C12.667 11.5786 11.8509 11.9167 11 11.9167ZM11 10.0833C11.3647 10.0833 11.7144 9.93847 11.9723 9.68061C12.2301 9.42274 12.375 9.07301 12.375 8.70833C12.375 8.34366 12.2301 7.99392 11.9723 7.73606C11.7144 7.4782 11.3647 7.33333 11 7.33333C10.6353 7.33333 10.2856 7.4782 10.0277 7.73606C9.76987 7.99392 9.625 8.34366 9.625 8.70833C9.625 9.07301 9.76987 9.42274 10.0277 9.68061C10.2856 9.93847 10.6353 10.0833 11 10.0833Z"
          fill="black" fill-opacity="0.5"/>
</svg>
